<svg width="117" height="140" viewBox="0 0 117 140" fill="none" xmlns="http://www.w3.org/2000/svg">
<g clip-path="url(#clip0_71_423)">
<path d="M116.941 80.5404C116.949 73.8167 113.629 66.6339 108.67 61.4827C113.646 60.2332 116.983 55.6685 117 48.9448C117.017 38.8039 109.46 27.609 100.128 23.9454C93.9804 21.5313 88.5885 22.9848 85.6166 27.1585C82.6702 20.6643 77.2952 14.9776 71.1391 12.5635C64.983 10.1494 59.5996 11.6029 56.6277 15.7766C53.6813 9.28235 48.3063 3.59565 42.1502 1.18156C32.8099 -2.48207 25.2273 2.76262 25.2103 12.9035C25.2018 19.6272 28.5219 26.81 33.4807 31.9612C28.5049 33.2107 25.1679 37.7754 25.1509 44.4991C25.1339 51.2229 28.4115 58.3121 33.3194 63.4548C28.403 64.7383 25.1084 69.2945 25.0914 75.9757C25.0745 86.1166 32.6316 97.3115 41.9634 100.975C48.111 103.389 53.5029 101.936 56.4749 97.762C59.4213 104.256 64.7962 109.943 70.9523 112.357C77.0999 114.771 82.4918 113.318 85.4638 109.144C88.4102 115.638 93.7851 121.325 99.9412 123.739C109.282 127.403 116.864 122.158 116.881 112.017C116.89 105.336 113.621 98.204 108.713 93.0613C113.629 91.7778 116.924 87.2216 116.941 80.5404ZM85.5826 46.0717C87.0261 49.2423 89.047 52.2259 91.45 54.725C89.0385 55.3285 87.0091 56.7141 85.5572 58.7541C84.1137 55.5835 82.0928 52.5999 79.6897 50.1008C82.1012 49.4973 84.1306 48.1117 85.5826 46.0717ZM56.5937 34.6813C58.0372 37.8519 60.0581 40.8355 62.4611 43.3346C60.0496 43.9381 58.0203 45.3236 56.5683 47.3637C55.1248 44.1931 53.1039 41.2095 50.7008 38.7104C53.1123 38.1069 55.1417 36.7213 56.5937 34.6813ZM56.5173 78.8403C55.0993 75.7122 53.1123 72.7711 50.7433 70.289C53.1123 69.6685 55.1078 68.2915 56.5343 66.2854C57.9523 69.4135 59.9393 72.3546 62.3083 74.8367C59.9393 75.4572 57.9438 76.8343 56.5173 78.8403ZM85.4977 90.2222C84.0797 87.0941 82.0928 84.153 79.7237 81.6709C82.0928 81.0504 84.0882 79.6734 85.5147 77.6673C86.9327 80.7954 88.9197 83.7365 91.2887 86.2186C88.9197 86.8391 86.9242 88.2162 85.4977 90.2222Z" fill="white"/>
<path d="M108.585 85.3175C108.594 78.7808 105.376 71.802 100.553 66.8039C105.384 65.5883 108.628 61.1512 108.645 54.6229C108.662 44.7711 101.325 33.8992 92.2482 30.3291C86.2704 27.983 81.0314 29.394 78.1528 33.4487C75.2913 27.1415 70.0608 21.6163 64.0914 19.2702C58.1137 16.9241 52.8746 18.3351 49.9961 22.3898C47.1346 16.0826 41.904 10.5574 35.9347 8.21128C33.7779 7.36125 28.3436 5.9162 24.0725 9.04431L14.1039 15.105C13.6283 15.343 13.1528 15.6235 12.6943 15.9636C8.6695 18.9302 8.11757 24.0728 8.11757 26.5039C8.10908 33.0407 11.3272 40.0194 16.1502 45.0176C11.3187 46.2331 8.07511 50.6703 8.05813 57.1985C8.04964 63.6843 11.2253 70.6205 15.9974 75.6187C11.2169 76.8682 8.01568 81.2884 8.00719 87.7826C7.9902 97.6345 15.3266 108.506 24.4037 112.076C30.3815 114.423 35.6205 113.012 38.499 108.957C41.3605 115.264 46.5911 120.789 52.5604 123.135C58.5382 125.481 63.7773 124.07 66.6558 120.016C69.5173 126.323 74.7479 131.848 80.7172 134.194C84.4448 135.656 87.8837 135.648 90.6434 134.458L90.7283 134.415C91.467 134.084 92.1633 133.676 92.7916 133.174L102.743 127.207V127.19C106.276 125.303 108.526 121.333 108.543 115.902C108.551 109.416 105.376 102.48 100.604 97.4815C105.384 96.2319 108.585 91.8118 108.594 85.3175H108.585Z" fill="#1B1B1B" stroke="white" stroke-width="0.5" stroke-miterlimit="10"/>
<path d="M91.8491 95.6284C91.8576 88.9047 88.5376 81.7219 83.5787 76.5707C88.5545 75.3212 91.8916 70.7565 91.9086 64.0328C91.9255 53.8919 84.3684 42.697 75.0366 39.0334C68.889 36.6193 63.4971 38.0728 60.5251 42.2465C57.5787 35.7523 52.2038 30.0656 46.0477 27.6515C39.9001 25.2374 34.5082 26.6909 31.5363 30.8646C28.5898 24.3704 23.2149 18.6836 17.0588 16.2696C7.71849 12.5889 0.135861 17.8421 0.118878 27.983C0.110387 34.7067 3.43044 41.8895 8.38929 47.0407C3.41346 48.2902 0.0679313 52.8549 0.0594401 59.5786C0.050949 66.2598 3.32005 73.3916 8.22796 78.5343C3.31156 79.8178 0.00849305 84.374 1.86308e-06 91.0552C-0.0169805 101.196 7.54017 112.391 16.872 116.055C23.0196 118.469 28.4115 117.015 31.3834 112.842C34.3299 119.336 39.7048 125.022 45.8609 127.437C52.0085 129.851 57.4004 128.397 60.3723 124.223C63.3187 130.718 68.6937 136.404 74.8498 138.818C84.1901 142.482 91.7727 137.237 91.7897 127.097C91.7982 120.415 88.5291 113.284 83.6212 108.141C88.5376 106.857 91.8321 102.301 91.8491 95.6199V95.6284ZM60.4912 61.1597C61.9347 64.3303 63.9556 67.3139 66.3586 69.813C63.9471 70.4165 61.9177 71.8021 60.4657 73.8421C59.0222 70.6715 57.0013 67.6879 54.5983 65.1888C57.0098 64.5853 59.0392 63.1997 60.4912 61.1597ZM31.5023 49.7693C32.9458 52.9399 34.9667 55.9235 37.3697 58.4226C34.9582 59.0261 32.9288 60.4116 31.4768 62.4517C30.0333 59.2811 28.0124 56.2975 25.6094 53.7984C28.0209 53.1949 30.0503 51.8093 31.5023 49.7693ZM31.4174 93.9283C29.9993 90.8002 28.0124 87.8591 25.6434 85.377C28.0124 84.7565 30.0078 83.3795 31.4344 81.3734C32.8524 84.5015 34.8393 87.4426 37.2084 89.9247C34.8393 90.5452 32.8439 91.9223 31.4174 93.9283ZM60.4063 105.319C58.9882 102.191 57.0013 99.2495 54.6323 96.7674C57.0013 96.1469 58.9967 94.7699 60.4233 92.7638C61.8413 95.8919 63.8282 98.833 66.1973 101.315C63.8282 101.936 61.8328 103.313 60.4063 105.319Z" fill="white"/>
</g>
<defs>
<clipPath id="clip0_71_423">
<rect width="117" height="140" fill="white"/>
</clipPath>
</defs>
</svg>
