<svg width="19" height="14" viewBox="0 0 19 14" fill="none" xmlns="http://www.w3.org/2000/svg">
<path d="M5.56774 4.763H7.64674V2.211H8.31774V7.909H7.64674V5.324H5.56774V4.763ZM0.584742 7.26C1.93774 6.743 3.03774 5.456 3.03774 4.026V3.52H0.804742V2.959H5.89774V3.52H3.70874V4.026C3.70874 5.302 4.75374 6.501 6.08474 6.974L5.73274 7.513C4.66574 7.106 3.78574 6.27 3.38974 5.236C2.99374 6.413 2.04774 7.337 0.925742 7.788L0.584742 7.26ZM2.05874 9.999C2.05874 8.899 3.24674 8.239 5.20474 8.239C7.16274 8.239 8.35074 8.899 8.35074 9.999C8.35074 11.11 7.16274 11.748 5.20474 11.748C3.24674 11.748 2.05874 11.11 2.05874 9.999ZM2.71874 9.999C2.71874 10.747 3.68674 11.22 5.20474 11.22C6.72274 11.22 7.69074 10.747 7.69074 9.999C7.69074 9.24 6.72274 8.778 5.20474 8.778C3.68674 8.778 2.71874 9.24 2.71874 9.999ZM9.813 9.933H13.795V7.755H10.88V2.904H11.54V4.708H16.732V2.904H17.392V7.755H14.455V9.933H18.47V10.505H9.813V9.933ZM11.54 7.205H16.732V5.269H11.54V7.205Z" fill="#777777"/>
</svg>
