<svg width="19" height="14" viewBox="0 0 19 14" fill="none" xmlns="http://www.w3.org/2000/svg">
<path d="M0.639742 3.993H2.47674V2.519H3.26874V3.993H5.10574V4.675H3.26874V5.137C3.26874 6.677 4.07174 8.261 5.35874 8.954L4.87474 9.581C3.92874 9.053 3.23574 8.052 2.88374 6.875C2.54274 8.129 1.86074 9.218 0.892742 9.79L0.397742 9.163C1.69574 8.404 2.47674 6.721 2.47674 5.137V4.675H0.639742V3.993ZM5.77674 11.308V2.398H6.55774V6.083H7.87774V2.178H8.66974V11.803H7.87774V6.776H6.55774V11.308H5.77674ZM10.341 2.893H14.906V3.553H11.155V4.807H14.642V5.467H11.155V6.776C13.201 6.776 14.356 6.732 15.698 6.501L15.786 7.172C14.389 7.403 13.223 7.447 11.111 7.447H10.341V2.893ZM11.254 10.032C11.254 8.932 12.475 8.294 14.477 8.294C16.479 8.294 17.7 8.932 17.7 10.032C17.7 11.154 16.479 11.781 14.477 11.781C12.475 11.781 11.254 11.154 11.254 10.032ZM12.079 10.032C12.079 10.725 12.981 11.132 14.477 11.132C15.962 11.132 16.875 10.725 16.875 10.032C16.875 9.361 15.962 8.943 14.477 8.943C12.981 8.943 12.079 9.361 12.079 10.032ZM16.82 8.151V2.189H17.656V8.151H16.82Z" fill="white"/>
</svg>
