<svg width="10" height="14" viewBox="0 0 10 14" fill="none" xmlns="http://www.w3.org/2000/svg">
<path d="M1.74387 8.932H8.22287V11.627H1.74387V8.932ZM0.665871 8.107V7.557H4.64787V6.721C2.90987 6.666 1.94187 6.204 1.94187 5.368C1.94187 4.488 3.03087 4.026 4.97787 4.026C6.91387 4.026 8.01387 4.488 8.01387 5.368C8.01387 6.204 7.04587 6.666 5.31887 6.721V7.557H9.28987V8.107H0.665871ZM1.13887 3.586V3.047H4.64787V2.035H5.31887V3.047H8.77287V3.586H1.13887ZM2.39287 11.099H7.57387V9.449H2.39287V11.099ZM2.63487 5.368C2.63487 5.918 3.50387 6.237 4.97787 6.237C6.44087 6.237 7.30987 5.918 7.30987 5.368C7.30987 4.829 6.44087 4.51 4.97787 4.51C3.50387 4.51 2.63487 4.829 2.63487 5.368Z" fill="#777777"/>
</svg>
