<svg width="19" height="14" viewBox="0 0 19 14" fill="none" xmlns="http://www.w3.org/2000/svg">
<path d="M0.672742 4.059H2.57574V2.563H3.22474V4.059H5.12774V4.62H3.22474V5.17C3.22474 6.721 4.10474 8.327 5.35874 9.009L4.95174 9.515C3.99474 8.965 3.25774 7.898 2.90574 6.688C2.57574 7.975 1.83874 9.13 0.870742 9.724L0.452742 9.207C1.72874 8.47 2.57574 6.765 2.57574 5.17V4.62H0.672742V4.059ZM5.86474 11.264V2.442H6.50274V6.149H7.95474V2.211H8.60374V11.77H7.95474V6.721H6.50274V11.264H5.86474ZM11.122 6.853C13.223 6.853 14.356 6.809 15.709 6.567L15.786 7.128C14.389 7.359 13.245 7.403 11.122 7.403H10.374V2.937H14.895V3.476H11.034V4.862H14.631V5.401H11.034V6.853H11.122ZM11.276 10.021C11.276 8.943 12.475 8.327 14.466 8.327C16.435 8.327 17.645 8.943 17.645 10.021C17.645 11.121 16.435 11.737 14.466 11.737C12.475 11.737 11.276 11.121 11.276 10.021ZM11.947 10.021C11.947 10.758 12.915 11.209 14.466 11.209C15.995 11.209 16.974 10.758 16.974 10.021C16.974 9.317 15.995 8.866 14.466 8.866C12.915 8.866 11.947 9.317 11.947 10.021ZM16.919 8.184V2.222H17.59V8.184H16.919Z" fill="#777777"/>
</svg>
