<svg width="19" height="14" viewBox="0 0 19 14" fill="none" xmlns="http://www.w3.org/2000/svg">
<path d="M5.60074 4.697H7.55874V2.178H8.38374V7.909H7.55874V5.379H5.60074V4.697ZM0.529742 7.161C1.93774 6.644 2.96074 5.346 2.96074 3.949V3.575H0.782742V2.893H5.91974V3.575H3.78574V3.949C3.78574 5.203 4.75374 6.402 6.13974 6.886L5.71074 7.546C4.63274 7.15 3.79674 6.336 3.38974 5.335C2.98274 6.479 2.08074 7.381 0.947742 7.821L0.529742 7.161ZM2.02574 10.01C2.02574 8.888 3.23574 8.217 5.22674 8.217C7.20674 8.217 8.41674 8.888 8.41674 10.01C8.41674 11.143 7.20674 11.792 5.22674 11.792C3.23574 11.792 2.02574 11.143 2.02574 10.01ZM2.85074 10.01C2.85074 10.714 3.75274 11.143 5.22674 11.143C6.68974 11.143 7.60274 10.714 7.60274 10.01C7.60274 9.295 6.68974 8.866 5.22674 8.866C3.75274 8.866 2.85074 9.295 2.85074 10.01ZM9.78 9.867H13.718V7.766H10.825V2.86H11.639V4.598H16.633V2.86H17.447V7.766H14.532V9.867H18.503V10.56H9.78V9.867ZM11.639 7.095H16.633V5.28H11.639V7.095Z" fill="white"/>
</svg>
