<svg width="10" height="14" viewBox="0 0 10 14" fill="none" xmlns="http://www.w3.org/2000/svg">
<path d="M1.71087 8.932H8.25587V11.671H1.71087V8.932ZM0.632871 8.173V7.513H4.57087V6.743C2.84387 6.688 1.88687 6.215 1.88687 5.39C1.88687 4.499 2.99787 4.026 4.97787 4.026C6.95787 4.026 8.06887 4.499 8.06887 5.39C8.06887 6.215 7.11187 6.688 5.39587 6.743V7.513H9.32287V8.173H0.632871ZM1.09487 3.63V2.981H4.57087V2.024H5.39587V2.981H8.81687V3.63H1.09487ZM2.51387 11.033H7.45287V9.559H2.51387V11.033ZM2.75587 5.39C2.75587 5.885 3.55887 6.171 4.97787 6.171C6.39687 6.171 7.19987 5.885 7.19987 5.39C7.19987 4.895 6.39687 4.609 4.97787 4.609C3.55887 4.609 2.75587 4.895 2.75587 5.39Z" fill="white"/>
</svg>
