<svg width="19" height="14" viewBox="0 0 19 14" fill="none" xmlns="http://www.w3.org/2000/svg">
<path d="M0.947742 3.19H5.24874V9.306H0.947742V3.19ZM1.59674 8.756H4.59974V3.74H1.59674V8.756ZM7.14074 11.77V2.211H7.81174V6.116H9.45074V6.688H7.81174V11.77H7.14074ZM16.908 2.2H17.568V11.781H16.908V2.2ZM10.187 6.27C10.187 4.257 11.177 2.981 12.585 2.981C13.982 2.981 14.972 4.257 14.972 6.27C14.972 8.283 13.982 9.581 12.585 9.581C11.177 9.581 10.187 8.283 10.187 6.27ZM10.836 6.27C10.836 7.876 11.551 8.987 12.585 8.987C13.597 8.987 14.323 7.876 14.323 6.27C14.323 4.675 13.597 3.564 12.585 3.564C11.551 3.564 10.836 4.675 10.836 6.27Z" fill="#777777"/>
</svg>
