<svg width="19" height="14" viewBox="0 0 19 14" fill="none" xmlns="http://www.w3.org/2000/svg">
<path d="M0.892742 3.146H5.28174V9.35H0.892742V3.146ZM1.69574 8.679H4.47874V3.817H1.69574V8.679ZM7.05274 11.803V2.178H7.87774V6.05H9.47274V6.743H7.87774V11.803H7.05274ZM16.809 2.167H17.634V11.814H16.809V2.167ZM10.132 6.27C10.132 4.224 11.144 2.926 12.574 2.926C13.993 2.926 15.005 4.224 15.005 6.27C15.005 8.316 13.993 9.625 12.574 9.625C11.144 9.625 10.132 8.316 10.132 6.27ZM10.935 6.27C10.935 7.843 11.606 8.888 12.574 8.888C13.531 8.888 14.213 7.843 14.213 6.27C14.213 4.697 13.531 3.663 12.574 3.663C11.606 3.663 10.935 4.697 10.935 6.27Z" fill="white"/>
</svg>
